<svg version="1.1" id="Layer_1" xmlns="http://www.w3.org/2000/svg" xmlns:xlink="http://www.w3.org/1999/xlink" x="0px" y="0px"
	 width="100%" viewBox="0 0 417 417" enable-background="new 0 0 417 417" xml:space="preserve">
<path fill="#FFFFFF" opacity="1.000000" stroke="none" 
	d="
M1.000000,390.000000 
	C1.000000,269.977356 1.000000,149.954727 1.314936,29.757381 
	C2.018858,29.271790 2.621868,29.038038 2.765766,28.638807 
	C7.255146,16.183462 15.736760,7.698212 28.050526,2.925515 
	C28.541962,2.735039 28.691278,1.661886 29.000000,1.000000 
	C149.022644,1.000000 269.045288,1.000000 389.242615,1.314921 
	C389.728210,2.018831 389.961945,2.621850 390.361176,2.765740 
	C402.816467,7.255174 411.301819,15.736714 416.074463,28.050516 
	C416.264954,28.541954 417.338104,28.691271 418.000000,28.999996 
	C418.000000,149.022644 418.000000,269.045288 417.685089,389.242615 
	C416.981201,389.728149 416.378204,389.961914 416.234283,390.361145 
	C411.744843,402.816498 403.263214,411.301819 390.949402,416.074524 
	C390.458008,416.265015 390.308716,417.338135 390.000000,418.000000 
	C269.977356,418.000000 149.954727,418.000000 29.757381,417.685059 
	C29.271790,416.981171 29.038034,416.378174 28.638811,416.234253 
	C16.183447,411.744873 7.698248,403.263184 2.925512,390.949463 
	C2.735042,390.458038 1.661885,390.308716 1.000000,390.000000 
M150.574966,195.006516 
	C130.882614,214.338440 111.113579,233.593002 91.518532,253.023071 
	C69.999680,274.360687 48.641323,295.860168 27.212595,317.288666 
	C19.800344,324.700867 19.718922,333.306274 27.157877,340.631409 
	C44.210594,357.423157 61.345036,374.131958 78.403206,390.918243 
	C85.832100,398.228699 94.274780,398.221069 101.766052,390.731415 
	C128.495834,364.007355 155.220184,337.277924 181.946991,310.550934 
	C182.771088,309.726837 183.596191,308.903717 184.426712,308.086121 
	C198.032471,294.691986 211.639160,281.298828 225.839081,268.184204 
	C256.897278,299.296539 287.936981,330.427368 319.038635,361.496216 
	C322.643494,365.097290 326.249756,368.865387 330.445557,371.674622 
	C342.622894,379.827606 358.348419,378.753479 369.166412,368.185394 
	C375.161407,362.328918 378.101410,354.575836 377.867035,346.237396 
	C377.627716,337.724854 374.087189,330.382812 367.844971,324.281647 
	C345.735779,302.672058 323.734528,280.951782 301.743530,259.221680 
	C290.379700,247.992615 279.123566,236.654510 268.438293,224.983536 
	C285.429321,208.350769 302.514832,191.813156 319.388824,175.062515 
	C343.625031,151.003510 367.709930,126.792038 391.853485,102.639725 
	C399.269135,95.221367 399.259064,86.665993 391.688080,79.209671 
	C374.509979,62.291786 357.255371,45.451614 340.066620,28.544479 
	C333.380310,21.967726 324.573547,21.979389 317.778656,28.729006 
	C311.987518,34.481552 306.270538,40.309143 300.451904,46.033531 
	C282.433411,63.760105 264.295380,81.366043 246.368134,99.184196 
	C228.774414,116.670837 211.381989,134.360016 193.260223,151.791519 
	C169.599350,128.120682 145.945023,104.443260 122.257416,80.799194 
	C121.125595,79.669441 119.803940,78.637512 118.395172,77.891449 
	C97.157211,66.644073 75.888214,55.455326 54.630745,44.244774 
	C50.725101,42.185051 47.051910,42.331497 43.916634,45.615997 
	C40.955582,48.717987 40.239811,51.981339 42.501278,56.147541 
	C52.118042,73.864113 61.434380,91.743484 70.947021,109.517067 
	C73.144470,113.622810 74.998543,118.220322 78.174507,121.445381 
	C102.351845,145.996506 126.818153,170.263046 150.574966,195.006516 
z"/>
<path fill="#000000" opacity="1.000000" stroke="none" 
	d="
M28.531342,1.000000 
	C28.691278,1.661886 28.541962,2.735039 28.050526,2.925515 
	C15.736760,7.698212 7.255146,16.183462 2.765766,28.638807 
	C2.621868,29.038038 2.018858,29.271790 1.314936,29.291340 
	C1.000000,19.740208 1.000000,10.480416 1.000000,1.000000 
	C10.019698,1.000000 19.041191,1.000000 28.531342,1.000000 
z"/>
<path fill="#000000" opacity="1.000000" stroke="none" 
	d="
M418.000000,28.531338 
	C417.338104,28.691271 416.264954,28.541954 416.074463,28.050516 
	C411.301819,15.736714 402.816467,7.255174 390.361176,2.765740 
	C389.961945,2.621850 389.728210,2.018831 389.708649,1.314921 
	C399.259796,1.000000 408.519562,1.000000 418.000000,1.000000 
	C418.000000,10.019698 418.000000,19.041191 418.000000,28.531338 
z"/>
<path fill="#000000" opacity="1.000000" stroke="none" 
	d="
M1.000000,390.468658 
	C1.661885,390.308716 2.735042,390.458038 2.925512,390.949463 
	C7.698248,403.263184 16.183447,411.744873 28.638811,416.234253 
	C29.038034,416.378174 29.271790,416.981171 29.291340,417.685059 
	C19.740210,418.000000 10.480418,418.000000 1.000000,418.000000 
	C1.000000,408.980316 1.000000,399.958801 1.000000,390.468658 
z"/>
<path fill="#000000" opacity="1.000000" stroke="none" 
	d="
M390.468658,418.000000 
	C390.308716,417.338135 390.458008,416.265015 390.949402,416.074524 
	C403.263214,411.301819 411.744843,402.816498 416.234283,390.361145 
	C416.378204,389.961914 416.981201,389.728149 417.685089,389.708618 
	C418.000000,399.259796 418.000000,408.519562 418.000000,418.000000 
	C408.980316,418.000000 399.958801,418.000000 390.468658,418.000000 
z"/>
<path fill="#201F1F" opacity="1.000000" stroke="none" 
	d="
M267.818787,225.365677 
	C279.123566,236.654510 290.379700,247.992615 301.743530,259.221680 
	C323.734528,280.951782 345.735779,302.672058 367.844971,324.281647 
	C374.087189,330.382812 377.627716,337.724854 377.867035,346.237396 
	C378.101410,354.575836 375.161407,362.328918 369.166412,368.185394 
	C358.348419,378.753479 342.622894,379.827606 330.445557,371.674622 
	C326.249756,368.865387 322.643494,365.097290 319.038635,361.496216 
	C287.936981,330.427368 256.897278,299.296539 225.390167,267.736176 
	C220.946442,263.494354 216.951645,259.700562 212.876221,255.587738 
	C196.348694,239.102264 179.901810,222.935822 163.320740,206.452713 
	C159.189209,202.296753 155.191849,198.457474 151.194489,194.618195 
	C126.818153,170.263046 102.351845,145.996506 78.174507,121.445381 
	C74.998543,118.220322 73.144470,113.622810 70.947021,109.517067 
	C61.434380,91.743484 52.118042,73.864113 42.501278,56.147541 
	C40.239811,51.981339 40.955582,48.717987 43.916634,45.615997 
	C47.051910,42.331497 50.725101,42.185051 54.630745,44.244774 
	C75.888214,55.455326 97.157211,66.644073 118.395172,77.891449 
	C119.803940,78.637512 121.125595,79.669441 122.257416,80.799194 
	C145.945023,104.443260 169.599350,128.120682 193.763916,152.160889 
	C198.199020,156.379013 202.130447,160.227783 206.142792,164.401962 
	C207.619186,165.867310 209.121262,166.899902 210.393921,168.163544 
	C225.488510,183.150970 240.548843,198.172913 255.745407,213.504120 
	C259.854675,217.670197 263.836731,221.517944 267.818787,225.365677 
M73.218445,73.801208 
	C72.882050,73.661987 72.545662,73.522766 72.209267,73.383545 
	C72.446152,73.946938 72.683037,74.510330 73.000404,75.807869 
	C77.439789,84.138245 81.879173,92.468620 85.721634,99.678894 
	C89.932465,95.574333 94.263916,91.352188 98.576530,87.148407 
	C90.504494,82.977180 82.052956,78.609840 73.218445,73.801208 
M241.999512,224.500488 
	C199.456757,182.403961 156.914001,140.307434 114.451622,98.290443 
	C108.672623,104.036369 102.895752,109.780182 96.973816,115.668221 
	C172.991135,191.188583 248.998520,266.699066 324.994141,342.197876 
	C331.097015,336.083923 336.941742,330.228607 340.642548,326.521118 
	C307.946869,292.700195 275.223206,258.850342 241.999512,224.500488 
M340.013458,352.479340 
	C338.891022,353.585510 337.534607,354.259796 339.572998,356.179688 
	C343.799957,360.160828 352.672302,360.193817 356.822998,355.600525 
	C360.737610,351.268585 362.344299,342.938843 355.182007,337.183441 
	C350.305542,342.107330 345.412476,347.047974 340.013458,352.479340 
z"/>
<path fill="#E38445" opacity="1.000000" stroke="none" 
	d="
M212.956848,255.906754 
	C216.951645,259.700562 220.946442,263.494354 225.093445,267.596802 
	C211.639160,281.298828 198.032471,294.691986 184.426712,308.086121 
	C183.596191,308.903717 182.771088,309.726837 181.946991,310.550934 
	C155.220184,337.277924 128.495834,364.007355 101.766052,390.731415 
	C94.274780,398.221069 85.832100,398.228699 78.403206,390.918243 
	C61.345036,374.131958 44.210594,357.423157 27.157877,340.631409 
	C19.718922,333.306274 19.800344,324.700867 27.212595,317.288666 
	C48.641323,295.860168 69.999680,274.360687 91.518532,253.023071 
	C111.113579,233.593002 130.882614,214.338440 150.884735,194.812347 
	C155.191849,198.457474 159.189209,202.296753 163.111176,206.754791 
	C161.738815,208.768585 160.441864,210.163605 159.038696,211.672867 
	C166.166885,218.755920 172.975006,225.608261 179.891266,232.349655 
	C182.587982,234.978195 183.128723,237.889954 180.717438,240.623474 
	C177.942520,243.769226 175.367294,241.331940 173.025742,239.504791 
	C172.114014,238.793350 171.367386,237.870071 170.546951,237.041916 
	C164.482971,230.920898 158.419357,224.799515 152.504532,218.828568 
	C149.792191,221.590012 147.516632,223.906769 144.937729,226.532349 
	C151.636124,233.200150 158.419388,240.038422 165.310272,246.766449 
	C167.811691,249.208771 169.689789,251.788422 166.605789,254.749969 
	C163.519058,257.714172 161.011246,255.616119 158.625977,253.157669 
	C151.932602,246.258987 145.134216,239.462189 138.439850,232.688538 
	C135.498489,235.763794 133.038361,238.335922 130.292038,241.207275 
	C134.531631,244.995529 139.031906,248.892807 143.385193,252.947906 
	C146.551727,255.897552 149.670151,258.926605 152.532867,262.165222 
	C154.519989,264.413269 154.624237,267.559174 152.063248,269.035065 
	C150.403244,269.991699 147.524231,269.231354 145.326950,268.690125 
	C144.222702,268.418121 143.417999,266.921448 142.482635,265.973907 
	C136.089783,259.497772 129.698196,253.020447 123.836487,247.080826 
	C120.818634,249.802185 118.402344,251.981079 115.645653,254.466934 
	C122.895279,261.617096 130.192093,268.449463 136.953323,275.776093 
	C138.381775,277.323975 138.995987,281.387421 137.971207,283.051422 
	C136.095627,286.096985 132.847931,284.656708 130.358963,282.806335 
	C129.301331,282.020050 128.444260,280.959839 127.515182,280.005493 
	C121.290710,273.611908 115.071388,267.213318 108.846008,260.811859 
	C105.900177,263.693085 103.523605,266.017548 101.006897,268.479065 
	C108.295837,275.772186 115.378189,283.038055 122.685341,290.070343 
	C125.161316,292.453156 125.956413,294.942932 123.689697,297.351196 
	C121.252037,299.941101 118.644173,299.365814 116.060020,296.675934 
	C109.036896,289.365387 101.768219,282.290741 94.902008,275.427582 
	C92.337929,278.003357 89.924423,280.427856 87.334328,283.029785 
	C93.825027,289.458923 100.390984,296.083344 107.104195,302.554993 
	C109.936584,305.285461 112.174614,308.587158 109.127083,311.711090 
	C106.182335,314.729614 102.974487,312.728668 100.252136,309.846680 
	C93.766365,302.980621 87.024261,296.356659 80.555420,289.806763 
	C77.800224,292.613373 75.525146,294.930908 72.955574,297.548431 
	C79.766106,304.322632 86.610191,311.341461 93.711197,318.089996 
	C96.580223,320.816650 97.047401,324.011658 94.602905,326.298004 
	C92.535812,328.231354 89.554787,327.112244 87.179420,324.796753 
	C80.057228,317.854126 72.687347,311.165558 65.697601,304.642365 
	C63.248383,306.837524 60.686058,309.134064 57.880768,311.648376 
	C65.438980,319.122284 72.845451,326.317902 80.050270,333.710083 
	C81.120209,334.807831 82.029388,337.110535 81.590744,338.354126 
	C81.088913,339.776855 78.956093,341.576996 77.608543,341.516144 
	C75.779938,341.433624 73.710602,340.062744 72.290016,338.682892 
	C65.303902,331.897125 58.498310,324.925507 52.426277,318.821045 
	C48.392120,322.546600 44.763779,325.897400 40.879913,329.484161 
	C57.266697,345.384369 73.661552,361.292419 90.116951,377.259216 
	C91.169525,376.257690 91.902824,375.584534 92.609200,374.884247 
	C131.616486,336.214783 170.620193,297.541779 209.633804,258.878723 
	C210.687973,257.834076 211.846817,256.895050 212.956848,255.906754 
z"/>
<path fill="#E38445" opacity="1.000000" stroke="none" 
	d="
M206.061874,164.076553 
	C202.130447,160.227783 198.199020,156.379013 194.084412,152.245270 
	C211.381989,134.360016 228.774414,116.670837 246.368134,99.184196 
	C264.295380,81.366043 282.433411,63.760105 300.451904,46.033531 
	C306.270538,40.309143 311.987518,34.481552 317.778656,28.729006 
	C324.573547,21.979389 333.380310,21.967726 340.066620,28.544479 
	C357.255371,45.451614 374.509979,62.291786 391.688080,79.209671 
	C399.259064,86.665993 399.269135,95.221367 391.853485,102.639725 
	C367.709930,126.792038 343.625031,151.003510 319.388824,175.062515 
	C302.514832,191.813156 285.429321,208.350769 268.128540,225.174606 
	C263.836731,221.517944 259.854675,217.670197 255.941528,213.195496 
	C296.766846,172.175629 337.523285,131.782700 378.738098,90.935516 
	C361.981750,74.563141 345.641571,58.597389 329.269165,42.600140 
	C324.964844,46.934704 321.144165,50.782215 317.140442,54.814041 
	C324.242096,61.857590 331.534882,68.711021 338.259979,76.082359 
	C339.598511,77.549492 339.709839,81.480515 338.718781,83.425102 
	C337.084076,86.632629 334.089417,84.805206 331.929443,83.296486 
	C330.315155,82.168930 329.045471,80.545074 327.634155,79.130440 
	C321.801788,73.284294 315.973938,67.433678 310.982727,62.425777 
	C307.831604,64.922928 305.271179,66.951958 302.406708,69.221970 
	C309.615845,76.325706 316.335724,83.027267 323.155762,89.625259 
	C325.617462,92.006813 327.714325,94.516769 324.751068,97.604553 
	C321.790497,100.689537 319.253479,98.763588 316.759338,96.320694 
	C309.791107,89.495621 302.674805,82.821701 296.006592,76.459846 
	C293.380219,79.083817 290.966553,81.495293 288.269836,84.189529 
	C295.371185,90.851402 302.749023,97.534988 309.773376,104.571457 
	C311.109283,105.909653 311.894653,108.915611 311.341888,110.642433 
	C310.949188,111.869324 307.902954,112.740150 306.000824,112.820648 
	C304.688599,112.876183 303.098358,111.522438 301.991821,110.433289 
	C295.147949,103.696930 288.405975,96.857033 281.581482,90.002632 
	C278.920990,92.635567 276.558258,94.973869 274.090576,97.416000 
	C274.722534,98.111694 275.239349,98.728783 275.805573,99.296608 
	C282.274323,105.783607 288.962097,112.073723 295.064148,118.888512 
	C296.449463,120.435638 296.890472,124.440704 295.855194,126.171333 
	C294.233551,128.882233 291.037109,128.270844 288.636047,126.084351 
	C287.405853,124.964104 286.254303,123.756882 285.078156,122.578003 
	C279.120209,116.606064 273.165833,110.630562 267.691437,105.139053 
	C264.822723,107.787262 262.433319,109.992989 259.808075,112.416435 
	C266.725250,119.295097 273.526276,126.136436 280.426147,132.876617 
	C282.785950,135.181808 284.502838,137.649979 281.845551,140.515991 
	C278.940613,143.649109 276.331207,141.943466 273.858154,139.405487 
	C266.885956,132.250214 259.812347,125.193787 253.018448,118.340256 
	C250.309952,121.100128 247.797256,123.660500 244.683304,126.833542 
	C246.110580,128.059662 247.784332,129.399857 249.347824,130.858261 
	C254.920181,136.056076 260.550079,141.198914 265.939392,146.581650 
	C267.342072,147.982620 268.475616,150.111267 268.725433,152.036423 
	C268.875244,153.190536 267.153442,155.599655 266.132477,155.680923 
	C264.066650,155.845322 261.279144,155.471634 259.887970,154.157043 
	C252.535553,147.209259 245.524765,139.899933 238.452667,132.773544 
	C235.758530,135.477615 233.467041,137.777573 230.989716,140.264023 
	C231.927887,141.273621 232.894440,142.377655 233.927734,143.415176 
	C239.922363,149.434341 246.151031,155.243576 251.789276,161.578842 
	C253.259323,163.230606 252.906158,166.504990 253.390381,169.034134 
	C250.907974,169.018753 248.364792,169.319702 245.968002,168.858994 
	C244.706772,168.616562 243.632217,167.111282 242.591934,166.059052 
	C236.301514,159.696289 230.045334,153.299667 224.285446,147.431625 
	C221.449829,150.220291 219.028290,152.601730 216.522476,155.066055 
	C223.420807,161.944626 230.408966,169.091064 237.617813,176.007523 
	C240.262848,178.545273 241.024353,181.142426 238.406937,183.635925 
	C236.040161,185.890701 233.537979,185.273056 231.126297,182.739014 
	C224.135147,175.393127 216.901108,168.278366 209.755798,161.066254 
	C208.360306,162.203491 207.211090,163.140030 206.061874,164.076553 
z"/>
<path fill="#FFFFFF" opacity="1.000000" stroke="none" 
	d="
M206.142792,164.401962 
	C207.211090,163.140030 208.360306,162.203491 209.755798,161.066254 
	C216.901108,168.278366 224.135147,175.393127 231.126297,182.739014 
	C233.537979,185.273056 236.040161,185.890701 238.406937,183.635925 
	C241.024353,181.142426 240.262848,178.545273 237.617813,176.007523 
	C230.408966,169.091064 223.420807,161.944626 216.522476,155.066055 
	C219.028290,152.601730 221.449829,150.220291 224.285446,147.431625 
	C230.045334,153.299667 236.301514,159.696289 242.591934,166.059052 
	C243.632217,167.111282 244.706772,168.616562 245.968002,168.858994 
	C248.364792,169.319702 250.907974,169.018753 253.390381,169.034134 
	C252.906158,166.504990 253.259323,163.230606 251.789276,161.578842 
	C246.151031,155.243576 239.922363,149.434341 233.927734,143.415176 
	C232.894440,142.377655 231.927887,141.273621 230.989716,140.264023 
	C233.467041,137.777573 235.758530,135.477615 238.452667,132.773544 
	C245.524765,139.899933 252.535553,147.209259 259.887970,154.157043 
	C261.279144,155.471634 264.066650,155.845322 266.132477,155.680923 
	C267.153442,155.599655 268.875244,153.190536 268.725433,152.036423 
	C268.475616,150.111267 267.342072,147.982620 265.939392,146.581650 
	C260.550079,141.198914 254.920181,136.056076 249.347824,130.858261 
	C247.784332,129.399857 246.110580,128.059662 244.683304,126.833542 
	C247.797256,123.660500 250.309952,121.100128 253.018448,118.340256 
	C259.812347,125.193787 266.885956,132.250214 273.858154,139.405487 
	C276.331207,141.943466 278.940613,143.649109 281.845551,140.515991 
	C284.502838,137.649979 282.785950,135.181808 280.426147,132.876617 
	C273.526276,126.136436 266.725250,119.295097 259.808075,112.416435 
	C262.433319,109.992989 264.822723,107.787262 267.691437,105.139053 
	C273.165833,110.630562 279.120209,116.606064 285.078156,122.578003 
	C286.254303,123.756882 287.405853,124.964104 288.636047,126.084351 
	C291.037109,128.270844 294.233551,128.882233 295.855194,126.171333 
	C296.890472,124.440704 296.449463,120.435638 295.064148,118.888512 
	C288.962097,112.073723 282.274323,105.783607 275.805573,99.296608 
	C275.239349,98.728783 274.722534,98.111694 274.090576,97.416000 
	C276.558258,94.973869 278.920990,92.635567 281.581482,90.002632 
	C288.405975,96.857033 295.147949,103.696930 301.991821,110.433289 
	C303.098358,111.522438 304.688599,112.876183 306.000824,112.820648 
	C307.902954,112.740150 310.949188,111.869324 311.341888,110.642433 
	C311.894653,108.915611 311.109283,105.909653 309.773376,104.571457 
	C302.749023,97.534988 295.371185,90.851402 288.269836,84.189529 
	C290.966553,81.495293 293.380219,79.083817 296.006592,76.459846 
	C302.674805,82.821701 309.791107,89.495621 316.759338,96.320694 
	C319.253479,98.763588 321.790497,100.689537 324.751068,97.604553 
	C327.714325,94.516769 325.617462,92.006813 323.155762,89.625259 
	C316.335724,83.027267 309.615845,76.325706 302.406708,69.221970 
	C305.271179,66.951958 307.831604,64.922928 310.982727,62.425777 
	C315.973938,67.433678 321.801788,73.284294 327.634155,79.130440 
	C329.045471,80.545074 330.315155,82.168930 331.929443,83.296486 
	C334.089417,84.805206 337.084076,86.632629 338.718781,83.425102 
	C339.709839,81.480515 339.598511,77.549492 338.259979,76.082359 
	C331.534882,68.711021 324.242096,61.857590 317.140442,54.814041 
	C321.144165,50.782215 324.964844,46.934704 329.269165,42.600140 
	C345.641571,58.597389 361.981750,74.563141 378.738098,90.935516 
	C337.523285,131.782700 296.766846,172.175629 255.814301,212.877167 
	C240.548843,198.172913 225.488510,183.150970 210.393921,168.163544 
	C209.121262,166.899902 207.619186,165.867310 206.142792,164.401962 
z"/>
<path fill="#FFFFFF" opacity="1.000000" stroke="none" 
	d="
M212.876221,255.587738 
	C211.846817,256.895050 210.687973,257.834076 209.633804,258.878723 
	C170.620193,297.541779 131.616486,336.214783 92.609200,374.884247 
	C91.902824,375.584534 91.169525,376.257690 90.116951,377.259216 
	C73.661552,361.292419 57.266697,345.384369 40.879913,329.484161 
	C44.763779,325.897400 48.392120,322.546600 52.426277,318.821045 
	C58.498310,324.925507 65.303902,331.897125 72.290016,338.682892 
	C73.710602,340.062744 75.779938,341.433624 77.608543,341.516144 
	C78.956093,341.576996 81.088913,339.776855 81.590744,338.354126 
	C82.029388,337.110535 81.120209,334.807831 80.050270,333.710083 
	C72.845451,326.317902 65.438980,319.122284 57.880768,311.648376 
	C60.686058,309.134064 63.248383,306.837524 65.697601,304.642365 
	C72.687347,311.165558 80.057228,317.854126 87.179420,324.796753 
	C89.554787,327.112244 92.535812,328.231354 94.602905,326.298004 
	C97.047401,324.011658 96.580223,320.816650 93.711197,318.089996 
	C86.610191,311.341461 79.766106,304.322632 72.955574,297.548431 
	C75.525146,294.930908 77.800224,292.613373 80.555420,289.806763 
	C87.024261,296.356659 93.766365,302.980621 100.252136,309.846680 
	C102.974487,312.728668 106.182335,314.729614 109.127083,311.711090 
	C112.174614,308.587158 109.936584,305.285461 107.104195,302.554993 
	C100.390984,296.083344 93.825027,289.458923 87.334328,283.029785 
	C89.924423,280.427856 92.337929,278.003357 94.902008,275.427582 
	C101.768219,282.290741 109.036896,289.365387 116.060020,296.675934 
	C118.644173,299.365814 121.252037,299.941101 123.689697,297.351196 
	C125.956413,294.942932 125.161316,292.453156 122.685341,290.070343 
	C115.378189,283.038055 108.295837,275.772186 101.006897,268.479065 
	C103.523605,266.017548 105.900177,263.693085 108.846008,260.811859 
	C115.071388,267.213318 121.290710,273.611908 127.515182,280.005493 
	C128.444260,280.959839 129.301331,282.020050 130.358963,282.806335 
	C132.847931,284.656708 136.095627,286.096985 137.971207,283.051422 
	C138.995987,281.387421 138.381775,277.323975 136.953323,275.776093 
	C130.192093,268.449463 122.895279,261.617096 115.645653,254.466934 
	C118.402344,251.981079 120.818634,249.802185 123.836487,247.080826 
	C129.698196,253.020447 136.089783,259.497772 142.482635,265.973907 
	C143.417999,266.921448 144.222702,268.418121 145.326950,268.690125 
	C147.524231,269.231354 150.403244,269.991699 152.063248,269.035065 
	C154.624237,267.559174 154.519989,264.413269 152.532867,262.165222 
	C149.670151,258.926605 146.551727,255.897552 143.385193,252.947906 
	C139.031906,248.892807 134.531631,244.995529 130.292038,241.207275 
	C133.038361,238.335922 135.498489,235.763794 138.439850,232.688538 
	C145.134216,239.462189 151.932602,246.258987 158.625977,253.157669 
	C161.011246,255.616119 163.519058,257.714172 166.605789,254.749969 
	C169.689789,251.788422 167.811691,249.208771 165.310272,246.766449 
	C158.419388,240.038422 151.636124,233.200150 144.937729,226.532349 
	C147.516632,223.906769 149.792191,221.590012 152.504532,218.828568 
	C158.419357,224.799515 164.482971,230.920898 170.546951,237.041916 
	C171.367386,237.870071 172.114014,238.793350 173.025742,239.504791 
	C175.367294,241.331940 177.942520,243.769226 180.717438,240.623474 
	C183.128723,237.889954 182.587982,234.978195 179.891266,232.349655 
	C172.975006,225.608261 166.166885,218.755920 159.038696,211.672867 
	C160.441864,210.163605 161.738815,208.768585 163.245346,207.071472 
	C179.901810,222.935822 196.348694,239.102264 212.876221,255.587738 
z"/>
<path fill="#FFFFFF" opacity="1.000000" stroke="none" 
	d="
M242.249527,224.750473 
	C275.223206,258.850342 307.946869,292.700195 340.642548,326.521118 
	C336.941742,330.228607 331.097015,336.083923 324.994141,342.197876 
	C248.998520,266.699066 172.991135,191.188583 96.973816,115.668221 
	C102.895752,109.780182 108.672623,104.036369 114.451622,98.290443 
	C156.914001,140.307434 199.456757,182.403961 242.249527,224.750473 
z"/>
<path fill="#FFFFFF" opacity="1.000000" stroke="none" 
	d="
M73.601418,74.242508 
	C82.052956,78.609840 90.504494,82.977180 98.576530,87.148407 
	C94.263916,91.352188 89.932465,95.574333 85.721634,99.678894 
	C81.879173,92.468620 77.439789,84.138245 73.140060,75.240799 
	C73.386948,74.529991 73.494186,74.386253 73.601418,74.242508 
z"/>
<path fill="#FFFFFF" opacity="1.000000" stroke="none" 
	d="
M340.266418,352.233948 
	C345.412476,347.047974 350.305542,342.107330 355.182007,337.183441 
	C362.344299,342.938843 360.737610,351.268585 356.822998,355.600525 
	C352.672302,360.193817 343.799957,360.160828 339.572998,356.179688 
	C337.534607,354.259796 338.891022,353.585510 340.266418,352.233948 
z"/>
<path fill="#FFFFFF" opacity="1.000000" stroke="none" 
	d="
M73.099823,74.873726 
	C72.683037,74.510330 72.446152,73.946938 72.209267,73.383545 
	C72.545662,73.522766 72.882050,73.661987 73.409927,74.021858 
	C73.494186,74.386253 73.386948,74.529991 73.099823,74.873726 
z"/>
</svg>